<svg width="25" height="37" viewBox="0 0 25 37" fill="none" xmlns="http://www.w3.org/2000/svg">
    <path d="M23.7744 24.4758V19.9324C23.7744 19.1297 23.3304 18.393 22.6207 18.018C21.1789 17.2563 19.4444 18.3017 19.4444 19.9324V24.3795C19.4444 25.9931 18.6411 27.5008 17.302 28.4008L12.6991 31.4946C11.2434 32.473 11.3603 34.6514 12.9125 35.4684C13.6651 35.8645 14.5742 35.8165 15.2809 35.3433L19.4691 32.5394C22.1596 30.7381 23.7744 27.7136 23.7744 24.4758Z" fill="#E879F9"/>
    <path d="M1.38889 11.6355V16.179C1.38889 16.9816 1.83292 17.7184 2.54259 18.0933C3.98444 18.855 5.71896 17.8097 5.71896 16.179V11.7318C5.71896 10.1182 6.52219 8.61057 7.86135 7.71048L12.4642 4.61674C13.92 3.63829 13.803 1.4599 12.2508 0.642975C11.4983 0.246878 10.5892 0.294867 9.88246 0.767998L5.69426 3.57196C3.00376 5.37323 1.38889 8.39773 1.38889 11.6355Z" fill="#E879F9"/>
    <path d="M9.91965 27.8428L5.63422 30.3454C4.9762 30.7297 4.16579 30.7446 3.49409 30.3848C1.97495 29.571 1.94623 27.403 3.44328 26.5492L7.91538 23.9987C9.48717 23.1023 10.4575 21.4318 10.4575 19.6224V16.76C10.4575 13.2119 12.344 9.93144 15.4105 8.1468L19.3218 5.87056C20.0059 5.47245 20.8489 5.4634 21.5414 5.84673C23.0669 6.69121 23.092 8.87558 21.5863 9.75491L17.3009 12.2576C15.7445 13.1665 14.7876 14.8335 14.7876 16.6359V19.3626C14.7876 22.8536 12.9342 26.0822 9.91965 27.8428Z" fill="#E879F9"/>
</svg>